<svg xmlns="http://www.w3.org/2000/svg" viewBox="0 0 512 512">
  <rect width="512" height="512" fill="#2d9e5f"/>
  <rect x="140" y="100" width="232" height="312" rx="16" fill="white" opacity="0.95"/>
  <rect x="140" y="100" width="232" height="52" rx="16" fill="#1e7a47"/>
  <rect x="140" y="132" width="232" height="20" fill="#1e7a47"/>
  <circle cx="186" cy="210" r="12" fill="none" stroke="#2d9e5f" stroke-width="4"/>
  <rect x="212" y="203" width="120" height="7" rx="3" fill="#1a2e22" opacity="0.7"/>
  <circle cx="186" cy="262" r="12" fill="#2d9e5f"/>
  <path d="M180 262l4 4 8-8" fill="none" stroke="white" stroke-width="3.5" stroke-linecap="round" stroke-linejoin="round"/>
  <rect x="212" y="255" width="100" height="7" rx="3" fill="#6b8f78" opacity="0.4"/>
  <circle cx="186" cy="314" r="12" fill="none" stroke="#2d9e5f" stroke-width="4"/>
  <rect x="212" y="307" width="130" height="7" rx="3" fill="#1a2e22" opacity="0.7"/>
  <circle cx="186" cy="366" r="12" fill="#2d9e5f"/>
  <path d="M180 366l4 4 8-8" fill="none" stroke="white" stroke-width="3.5" stroke-linecap="round" stroke-linejoin="round"/>
  <rect x="212" y="359" width="90" height="7" rx="3" fill="#6b8f78" opacity="0.4"/>
</svg>
