<svg xmlns="http://www.w3.org/2000/svg" viewBox="0 0 512 512">
  <rect width="512" height="512" rx="96" fill="#2d9e5f"/>
  <rect x="2" y="2" width="508" height="508" rx="94" fill="none" stroke="#1e7a47" stroke-width="4"/>
  <rect x="120" y="80" width="272" height="352" rx="20" fill="white" opacity="0.95"/>
  <rect x="120" y="80" width="272" height="60" rx="20" fill="#1e7a47"/>
  <rect x="120" y="120" width="272" height="20" fill="#1e7a47"/>
  <circle cx="170" cy="200" r="14" fill="none" stroke="#2d9e5f" stroke-width="5"/>
  <rect x="200" y="192" width="150" height="8" rx="4" fill="#1a2e22" opacity="0.7"/>
  <rect x="200" y="208" width="90" height="6" rx="3" fill="#6b8f78" opacity="0.4"/>
  <circle cx="170" cy="260" r="14" fill="#2d9e5f"/>
  <path d="M163 260l5 5 10-10" fill="none" stroke="white" stroke-width="4" stroke-linecap="round" stroke-linejoin="round"/>
  <rect x="200" y="252" width="130" height="8" rx="4" fill="#6b8f78" opacity="0.4"/>
  <circle cx="170" cy="320" r="14" fill="none" stroke="#2d9e5f" stroke-width="5"/>
  <rect x="200" y="312" width="170" height="8" rx="4" fill="#1a2e22" opacity="0.7"/>
  <rect x="200" y="328" width="100" height="6" rx="3" fill="#6b8f78" opacity="0.4"/>
  <circle cx="170" cy="380" r="14" fill="#2d9e5f"/>
  <path d="M163 380l5 5 10-10" fill="none" stroke="white" stroke-width="4" stroke-linecap="round" stroke-linejoin="round"/>
  <rect x="200" y="372" width="110" height="8" rx="4" fill="#6b8f78" opacity="0.4"/>
</svg>
